# AST/ASF file generated using VICON BodyLanguage
# -----------------------------------------------
:version 1.10
:name VICON
:units
  mass 1.0
  length 0.45
  angle deg
:documentation
   .ast/.asf automatically generated from VICON data using
   VICON BodyBuilder and BodyLanguage model FoxedUp or BRILLIANT.MOD
:root
   order TX TY TZ RX RY RZ
   axis XYZ
   position 0 0 0  
   orientation 0 0 0 
:bonedata
  begin
     id 1 
     name lhipjoint
     direction 0.567149 -0.783011 0.255413 
     length 2.28399 
     axis 0 0 0  XYZ
  end
  begin
     id 2 
     name lfemur
     direction 0.34202 -0.939693 0  
     length 7.34031  
     axis 0 0 20  XYZ
    dof rx ry rz
    limits (-160.0 20.0)
           (-70.0 70.0)
           (-60.0 70.0)
  end
  begin
     id 3 
     name ltibia
     direction 0.34202 -0.939693 0   
     length 6.9833   
     axis 0 0 20   XYZ
    dof rx
    limits (-10.0 170.0)
  end
  begin
     id 4 
     name lfoot
     direction 0.136498 -0.375025 0.91691   
     length 2.33665   
     axis -90 7.62852e-016 20   XYZ
    dof rx rz
    limits (-45.0 90.0)
           (-70.0 20.0)
  end
  begin
     id 5 
     name ltoes
     direction 1.5367e-011 -4.21617e-011 1   
     length 1.15039   
     axis -90 7.62852e-016 20   XYZ
    dof rx
    limits (-90.0 20.0)
  end
  begin
     id 6 
     name rhipjoint
     direction -0.602854 -0.758518 0.247423   
     length 2.35775  
     axis 0 0 0  XYZ 
  end
  begin
     id 7 
     name rfemur
     direction -0.34202 -0.939693 0   
     length 7.43932   
     axis 0 0 -20   XYZ
    dof rx ry rz
    limits (-160.0 20.0)
           (-70.0 70.0)
           (-70.0 60.0)
  end
  begin
     id 8 
     name rtibia
     direction -0.34202 -0.939693 0   
     length 7.11893   
     axis 0 0 -20   XYZ
    dof rx
    limits (-10.0 170.0)
 end
 begin
     id 9 
     name rfoot
     direction -0.131771 -0.362037 0.922803   
     length 2.53019  
     axis -90 -7.62852e-016 -20   XYZ
    dof rx rz
    limits (-45.0 90.0)
           (-20.0 70.0)
  end
  begin
     id 10 
     name rtoes
     direction -1.53733e-011 -4.21932e-011 1   
     length 1.24596   
     axis -90 -7.62852e-016 -20   XYZ
    dof rx
    limits (-90.0 20.0)
  end
  begin
     id 11 
     name lowerback
     direction 0.0235427 0.999023 -0.0374125   
     length 2.21768   
     axis 0 0 0   XYZ
    dof rx ry rz
    limits (-20.0 45.0)
           (-30.0 30.0)
           (-30.0 30.0)
  end
  begin
     id 12 
     name upperback
     direction 0.0302156 0.996818 -0.073759   
     length 2.20352   
     axis 0 0 0   XYZ
    dof rx ry rz
    limits (-20.0 45.0)
           (-30.0 30.0)
           (-30.0 30.0)
  end
  begin
     id 13 
     name thorax
     direction 0.0187169 0.998235 -0.0563532   
     length 2.22103   
     axis 0 0 0   XYZ
    dof rx ry rz
    limits (-20.0 45.0)
           (-30.0 30.0)
           (-30.0 30.0)
  end
  begin
     id 14 
     name lowerneck
     direction -0.119528 0.987423 0.103481   
     length 1.72948   
     axis 0 0 0   XYZ
    dof rx ry rz
    limits (-20.0 45.0)
           (-30.0 30.0)
           (-30.0 30.0)
  end
  begin
     id 15 
     name upperneck
     direction 0.248049 0.963095 -0.104496   
     length 1.74979   
     axis 0 0 0   XYZ
    dof rx ry rz
    limits (-20.0 45.0)
           (-30.0 30.0)
           (-30.0 30.0)
  end
  begin
     id 16
     name head
     direction 0.0903589 0.994284 -0.056876  
     length 1.78268  
     axis 0 0 0   XYZ
    dof rx ry rz
    limits (-20.0 45.0)
           (-30.0 30.0)
           (-30.0 30.0)
  end
  begin
     id 17 
     name lclavicle
     direction 0.946008 0.242039 -0.215608  
     length 3.80783  
     axis 0 0 0   XYZ
    dof ry rz
    limits (-20.0 10.0)
           (0.0 20.0)
  end
  begin
     id 18 
     name lhumerus
     direction 1 -4.48991e-011 -2.25695e-027   
     length 4.83125   
     axis 180 -30 -90   XYZ
    dof rx ry rz
    limits (-60.0 90.0)
           (-90.0 90.0)
           (-90.0 90.0)
  end
  begin
     id 19
     name lradius
     direction 0.999991 0.00366712 -0.00211721   
     length 3.00391   
     axis 180 -30 -90   XYZ
    dof rx
    limits (-10.0 170.0)
  end
  begin
     id 20
     name lwrist
     direction 0.999991 0.00393016 -0.00141978   
     length 1.50195   
     axis -1.00488e-014 90 90   XYZ
    dof ry
    limits (-180.0 0.0)
 end
  begin
     id 21 
     name lhand
     direction 1 -4.49123e-011 2.72098e-026   
     length 1.2717   
     axis -1.73687e-014 90 90   XYZ
    dof rx rz
    limits (-90.0 90.0)
           (-45.0 45.0)
  end
  begin
     id 22 
     name lfingers
     direction 1 -4.48678e-011 5.4479e-026   
     length 1.02528   
     axis -3.47372e-014 90 90   XYZ
    dof rx
    limits (0.0 90.0)
  end
  begin
     id 23
     name lthumb
     direction 0.707107 -6.34851e-011 0.707107   
     length 1.4721   
     axis -90 45 -1.62303e-014   XYZ
    dof rx rz
    limits (-45.0 45.0)
           (-45.0 45.0)
  end
  begin
     id 24 
     name rclavicle
     direction -0.981723 0.189447 -0.0181673   
     length 3.74989  
     axis 0 0 0   XYZ 
    dof ry rz
    limits (-10.0 20.0)
           (-20.0 0.0)
  end
  begin
     id 25 
     name rhumerus
     direction -1 -4.48985e-011 2.38206e-027  
     length 4.61118   
     axis 180 30 90   XYZ
    dof rx ry rz
    limits (-90.0 60.0)
           (-90.0 90.0)
           (-90.0 90.0)
  end
  begin
     id 26 
     name rradius
     direction -1 -4.48977e-011 7.41019e-027   
     length 2.91491   
     axis 180 30 90   XYZ
    dof rx
    limits (-10.0 170.0)
  end
  begin
     id 27 
     name rwrist
     direction -1 -4.48549e-011 1.3624e-026   
     length 1.45745   
     axis -1.00488e-014 -90 -90   XYZ
    dof ry
    limits (-180.0 0.0)
  end
  begin
     id 28
     name rhand
     direction -1 -4.49107e-011 2.72109e-026   
     length 1.30769   
     axis -1.73687e-014 -90 -90   XYZ
    dof rx rz
    limits (-90.0 90.0)
           (-45.0 45.0)
  end
  begin
     id 29
     name rfingers
     direction -1 -4.48919e-011 5.44468e-026   
     length 1.05429   
     axis -3.47372e-014 -90 -90   XYZ
    dof rx
    limits (0.0 90.0)
  end
  begin
     id 30
     name rthumb
     direction -0.707107 -6.35315e-011 0.707107   
     length 1.51376   
     axis -90 -45 1.62303e-014   XYZ
    dof rx rz
    limits (-45.0 45.0)
           (-45.0 45.0)
  end
:hierarchy
  begin
    root lhipjoint rhipjoint lowerback
    lhipjoint lfemur
    lfemur ltibia
    ltibia lfoot
    lfoot ltoes
    rhipjoint rfemur
    rfemur rtibia
    rtibia rfoot
    rfoot rtoes
    lowerback upperback
    upperback thorax
    thorax lowerneck lclavicle rclavicle
    lowerneck upperneck
    upperneck head
    lclavicle lhumerus
    lhumerus lradius
    lradius lwrist
    lwrist lhand lthumb
    lhand lfingers
    rclavicle rhumerus
    rhumerus rradius
    rradius rwrist
    rwrist rhand rthumb
    rhand rfingers
  end

#!OML:ASF X:\für Bonn\!DataBase\2005_08_11_Bastian_Final\c3d\Bastian.ASF
:FULLY-SPECIFIED
:DEGREES
16
root 2.22387 18.6236 3.52982 720.37 0.518378 -4.68527
lowerback -7.23066 -1.28753 0.218725
upperback 0.549061 -1.7102 -0.533877
thorax 4.60254 -0.83458 -0.8654
lowerneck -13.8672 -3.25552 -9.1697
upperneck 2.63072 -3.46731 10.2447
head 3.37641 -1.35351 4.4045
rclavicle -7.20594e-015 1.82882e-014
rhumerus -48.1545 26.8243 -90.064
rradius 88.146
rwrist 4.79829
rhand -15.3211 18.4839
rfingers 7.12502
rthumb 10.8551 -11.2155
lclavicle -7.20594e-015 1.82882e-014
lhumerus -22.1623 -26.8752 77.6112
lradius 97.1318
lwrist -148.725
lhand -34.3927 9.37107
lfingers 7.12502
lthumb -7.55863 39.216
rfemur -0.38391 -3.98891 26.6571
rtibia 36.3964
rfoot 8.40925 -6.01499
rtoes 31.6119
lfemur -2.51617 -1.12271 -15.1692
ltibia 41.9046
lfoot 10.7473 -5.317
ltoes -30.4487
17
root 2.22186 18.9601 3.7664 720.464 0.314404 -4.58157
lowerback -8.2524 -1.26089 0.183728
upperback 0.435521 -1.67452 -0.45316
thorax 5.06454 -0.816017 -0.783161
lowerneck -13.5745 -3.19544 -9.7201
upperneck 2.97227 -3.34453 10.3289
head 3.43122 -1.30245 4.53298
rclavicle 3.8266e-015 -1.59028e-015
rhumerus -49.0862 27.6828 -89.8147
rradius 91.1013
rwrist 5.41865
rhand -14.9854 19.0627
rfingers 7.12502
rthumb 11.1788 -10.6195
lclavicle 3.8266e-015 -1.59028e-015
lhumerus -22.8815 -27.7791 77.0862
lradius 99.8396
lwrist -147.7
lhand -34.4518 8.91939
lfingers 7.12502
lthumb -7.6157 38.7623
rfemur 0.291666 -2.27011 27.0508
rtibia 35.292
rfoot 10.7354 -9.94846
rtoes 31.4401
lfemur -1.92668 -1.63226 -15.833
ltibia 40.8196
lfoot 13.9497 -3.90519
ltoes -29.3123
18
root 2.21964 19.2964 3.98536 720.767 0.118754 -4.53491
lowerback -9.23538 -1.21935 0.234327
upperback 0.375758 -1.628 -0.379494
thorax 5.55817 -0.78953 -0.753347
lowerneck -13.5907 -3.19051 -10.1404
upperneck 3.27941 -3.28618 10.3588
head 3.5275 -1.2769 4.61681
rclavicle -3.72224e-014 2.38542e-015
rhumerus -49.8361 28.3703 -89.5014
rradius 94.1595
rwrist 6.13501
rhand -14.7859 19.5218
rfingers 7.12502
rthumb 11.3712 -10.1499
lclavicle -3.72224e-014 2.38542e-015
lhumerus -23.3601 -28.347 76.4696
lradius 102.36
lwrist -146.809
lhand -34.6934 8.28519
lfingers 7.12502
lthumb -7.84884 38.1195
rfemur 0.360527 -0.863016 27.4261
rtibia 34.8814
rfoot 12.4339 -13.5395
rtoes 32.2349
lfemur -2.06211 -1.82355 -16.37
ltibia 40.4518
lfoot 16.3258 -2.82245
ltoes -27.6725
19
root 2.21594 19.631 4.186 721.085 -0.0519185 -4.49051
lowerback -9.93973 -1.14912 0.295129
upperback 0.370727 -1.5447 -0.329909
thorax 5.9516 -0.744828 -0.741316
lowerneck -13.6994 -3.24069 -10.5076
upperneck 3.42429 -3.29029 10.3761
head 3.59493 -1.28048 4.68246
rclavicle 1.48592e-014 2.62396e-014
rhumerus -50.6174 28.8736 -89.1152
rradius 97.4303
rwrist 6.92457
rhand -14.6348 19.8084
rfingers 7.12502
rthumb 11.517 -9.85519
lclavicle 1.48592e-014 2.62396e-014
lhumerus -23.7179 -28.7182 75.8898
lradius 104.583
lwrist -146.091
lhand -35.0961 7.97058
lfingers 7.12502
lthumb -8.23754 37.79
rfemur 0.0619842 0.473122 27.7979
rtibia 35.045
rfoot 13.4389 -16.9683
rtoes 33.3119
lfemur -2.68179 -1.54556 -16.7884
ltibia 40.789
lfoot 17.8655 -2.53415
ltoes -27.6641
20
root 2.21366 19.9471 4.36351 721.25 -0.169781 -4.49734
lowerback -10.1826 -1.06877 0.441101
upperback 0.445854 -1.45823 -0.291329
thorax 6.16671 -0.696826 -0.776965
lowerneck -13.9481 -3.34041 -10.8311
upperneck 3.5115 -3.35136 10.4112
head 3.67325 -1.30721 4.74135
rclavicle 4.94477e-015 -3.97569e-015
rhumerus -51.3454 29.187 -88.6575
rradius 100.85
rwrist 7.57821
rhand -14.2813 20.0486
rfingers 7.12502
rthumb 11.8578 -9.59563
lclavicle 4.94477e-015 -3.97569e-015
lhumerus -24.0878 -28.8617 75.4209
lradius 106.463
lwrist -145.548
lhand -35.0673 7.58614
lfingers 7.12502
lthumb -8.20974 37.4066
rfemur -0.29579 1.52245 28.1393
rtibia 35.781
rfoot 13.3465 -20.0975
rtoes 35.4389
lfemur -3.52212 -0.785353 -17.0558
ltibia 41.7262
lfoot 18.8932 -3.42989
ltoes -29.586
21
root 2.21329 20.2613 4.52935 721.241 -0.299146 -4.59423
lowerback -10.004 -0.947404 0.727859
upperback 0.586872 -1.33276 -0.261231
thorax 6.21064 -0.625918 -0.885873
lowerneck -14.202 -3.46529 -11.0584
upperneck 3.48354 -3.44907 10.3866
head 3.71868 -1.35334 4.76185
rclavicle -7.40473e-015 -1.11319e-014
rhumerus -52.1274 29.4129 -88.3589
rradius 104.104
rwrist 7.26022
rhand -14.1063 20.684
rfingers 7.12502
rthumb 12.0266 -8.95047
lclavicle -7.40473e-015 -1.11319e-014
lhumerus -24.5625 -28.835 75.0887
lradius 108.082
lwrist -145.034
lhand -34.8878 6.9792
lfingers 7.12502
lthumb -8.0365 36.8064
rfemur -0.654822 2.27995 28.4805
rtibia 36.9789
rfoot 12.521 -22.5394
rtoes 37.5402
lfemur -4.42256 0.252367 -17.1533
ltibia 43.1788
lfoot 19.5456 -5.58395
ltoes -31.6777
22
root 2.21469 20.5553 4.68097 721.195 -0.387132 -4.68926
lowerback -9.59996 -0.817355 1.0357
upperback 0.723294 -1.1938 -0.250995
thorax 6.12242 -0.548191 -1.0214
lowerneck -14.4068 -3.62041 -11.2738
upperneck 3.46229 -3.59414 10.3685
head 3.76357 -1.42359 4.7785
rclavicle -1.46604e-015 3.18055e-015
rhumerus -53.2114 29.5718 -88.3673
rradius 107.222
rwrist 6.05748
rhand -14.2614 21.6603
rfingers 7.12502
rthumb 11.8771 -7.98282
lclavicle -1.46604e-015 3.18055e-015
lhumerus -25.291 -28.6341 74.9627
lradius 109.561
lwrist -144.571
lhand -34.7616 6.47844
lfingers 7.12502
lthumb -7.91472 36.3103
rfemur -1.18039 2.78337 28.7264
rtibia 38.5783
rfoot 11.1624 -24.3929
rtoes 39.8014
lfemur -5.48561 1.12048 -17.2286
ltibia 44.9756
lfoot 19.8585 -7.5952
ltoes -32.7744
23
root 2.21605 20.834 4.82311 720.965 -0.48195 -4.78677
lowerback -8.84319 -0.668006 1.33484
upperback 0.878518 -1.02107 -0.235105
thorax 5.85627 -0.45582 -1.13691
lowerneck -14.5938 -3.81347 -11.5319
upperneck 3.50083 -3.78642 10.3487
head 3.82989 -1.51842 4.79741
rclavicle -1.36043e-014 -6.36111e-015
rhumerus -54.3718 29.5621 -88.4284
rradius 110.068
rwrist 5.30163
rhand -14.5258 22.4967
rfingers 7.12502
rthumb 11.6221 -7.16096
lclavicle -1.36043e-014 -6.36111e-015
lhumerus -26.1824 -28.3734 75.0553
lradius 110.883
lwrist -144.172
lhand -34.5451 6.13788
lfingers 7.12502
lthumb -7.70568 35.9775
rfemur -1.6402 3.03935 28.8859
rtibia 40.42
rfoot 9.51359 -25.5596
rtoes 42.0548
lfemur -6.47685 1.83302 -17.2573
ltibia 47.0229
lfoot 20.1483 -9.29914
ltoes -32.1578
